<svg width="24" height="24" viewBox="0 0 24 24" fill="none" xmlns="http://www.w3.org/2000/svg">
<path d="M14.0613 18.4422C14.6473 19.0281 14.6473 19.9781 14.0613 20.5641C13.4754 21.15 12.5254 21.15 11.9395 20.5641C11.3535 19.9781 11.3535 19.0281 11.9395 18.4422C12.2208 18.1607 12.6024 18.0025 13.0004 18.0025C13.3984 18.0025 13.78 18.1607 14.0613 18.4422" stroke="white" stroke-width="2" stroke-linecap="round" stroke-linejoin="round"/>
<path d="M19.5633 17.4418C20.1492 18.0277 20.1492 18.9777 19.5633 19.5636C18.9773 20.1496 18.0273 20.1496 17.4414 19.5636C16.8555 18.9777 16.8555 18.0277 17.4414 17.4418C17.7227 17.1602 18.1044 17.0021 18.5023 17.0021C18.9003 17.0021 19.282 17.1602 19.5633 17.4418" stroke="white" stroke-width="2" stroke-linecap="round" stroke-linejoin="round"/>
<path d="M3.9971 18.0025V18.0025C3.99269 16.9398 4.41287 15.9194 5.16429 15.168C5.91572 14.4166 6.93614 13.9964 7.99881 14.0008H11.1112" stroke="white" stroke-width="2" stroke-linecap="round" stroke-linejoin="round"/>
<circle cx="10.9997" cy="6.99791" r="4.00167" stroke="white" stroke-width="2" stroke-linecap="round" stroke-linejoin="round"/>
<path d="M14.501 19.3724V14.9018C14.5007 14.4927 14.7501 14.1248 15.1302 13.9734L18.6317 12.5728C18.9398 12.4495 19.289 12.487 19.5639 12.6731C19.8387 12.8591 20.0033 13.1693 20.0033 13.5012V18.3528" stroke="white" stroke-width="2" stroke-linecap="round" stroke-linejoin="round"/>
</svg>
