<svg width="24" height="24" viewBox="0 0 24 24" fill="none" xmlns="http://www.w3.org/2000/svg">
<path d="M14.0613 18.4424C14.6473 19.0283 14.6473 19.9783 14.0613 20.5642C13.4754 21.1502 12.5254 21.1502 11.9395 20.5642C11.3535 19.9783 11.3535 19.0283 11.9395 18.4424C12.2208 18.1609 12.6024 18.0027 13.0004 18.0027C13.3984 18.0027 13.78 18.1609 14.0613 18.4424" stroke="#FF6A3D" stroke-width="2" stroke-linecap="round" stroke-linejoin="round"/>
<path d="M19.5633 17.4419C20.1492 18.0278 20.1492 18.9778 19.5633 19.5638C18.9773 20.1497 18.0273 20.1497 17.4414 19.5638C16.8555 18.9778 16.8555 18.0278 17.4414 17.4419C17.7227 17.1604 18.1044 17.0022 18.5023 17.0022C18.9003 17.0022 19.282 17.1604 19.5633 17.4419" stroke="#FF6A3D" stroke-width="2" stroke-linecap="round" stroke-linejoin="round"/>
<path d="M3.9971 18.0027V18.0027C3.99269 16.94 4.41287 15.9196 5.16429 15.1682C5.91572 14.4168 6.93614 13.9966 7.99881 14.001H11.1112" stroke="#FF6A3D" stroke-width="2" stroke-linecap="round" stroke-linejoin="round"/>
<circle cx="10.9997" cy="6.998" r="4.00167" stroke="#FF6A3D" stroke-width="2" stroke-linecap="round" stroke-linejoin="round"/>
<path d="M14.501 19.3725V14.9018C14.5007 14.4927 14.7501 14.1248 15.1302 13.9734L18.6317 12.5729C18.9398 12.4495 19.289 12.4871 19.5639 12.6731C19.8387 12.8591 20.0033 13.1694 20.0033 13.5013V18.3528" stroke="#FF6A3D" stroke-width="2" stroke-linecap="round" stroke-linejoin="round"/>
</svg>
