<svg width="16" height="16" viewBox="0 0 16 16" fill="none" xmlns="http://www.w3.org/2000/svg">
<path d="M8.8998 1.70005C8.8998 1.46135 8.80498 1.23244 8.6362 1.06365C8.46742 0.89487 8.2385 0.800049 7.9998 0.800049C7.76111 0.800049 7.53219 0.89487 7.36341 1.06365C7.19463 1.23244 7.0998 1.46135 7.0998 1.70005V7.10005H1.6998C1.46111 7.10005 1.23219 7.19487 1.06341 7.36365C0.894626 7.53244 0.799805 7.76135 0.799805 8.00005C0.799805 8.23874 0.894626 8.46766 1.06341 8.63644C1.23219 8.80523 1.46111 8.90005 1.6998 8.90005H7.0998V14.3C7.0998 14.5387 7.19463 14.7677 7.36341 14.9364C7.53219 15.1052 7.76111 15.2 7.9998 15.2C8.2385 15.2 8.46742 15.1052 8.6362 14.9364C8.80498 14.7677 8.8998 14.5387 8.8998 14.3V8.90005H14.2998C14.5385 8.90005 14.7674 8.80523 14.9362 8.63644C15.105 8.46766 15.1998 8.23874 15.1998 8.00005C15.1998 7.76135 15.105 7.53244 14.9362 7.36365C14.7674 7.19487 14.5385 7.10005 14.2998 7.10005H8.8998V1.70005Z" fill="white"/>
</svg>
